<svg width="68" height="76" viewBox="0 0 68 76" fill="none" xmlns="http://www.w3.org/2000/svg">
        <path d="M26.75 43.4741L14 56.2217C12.8096 55.7353 11.5361 55.4868 10.25 55.4888C4.72705 55.4888 0.25 59.9663 0.25 65.4887C0.25 71.0117 4.72705 75.4887 10.25 75.4887C15.7729 75.4887 20.25 71.0117 20.25 65.4887C20.249 64.8911 20.1924 64.2944 20.083 63.7065L34.0239 50.0815L47.9639 63.7065C47.8535 64.2944 47.7979 64.8911 47.7964 65.4887C47.7964 71.0117 52.2734 75.4887 57.7964 75.4887C63.3188 75.4887 67.7964 71.0117 67.7964 65.4887C67.7964 59.9663 63.3188 55.4888 57.7964 55.4888C56.5103 55.4863 55.2363 55.7353 54.0464 56.2217L41.3115 43.4892L64.9761 16.27C70.4839 9.38523 65.0947 1.12791 65.04 1.04539C64.8369 0.740702 64.5103 0.540507 64.1465 0.498026C63.7812 0.456034 63.4165 0.574198 63.146 0.822733L34.0347 27.8642L4.91992 0.822733C4.6499 0.574198 4.28516 0.456034 3.91992 0.498026C3.55615 0.540507 3.22949 0.740702 3.02637 1.04539C2.9707 1.12791 -2.41602 9.38523 3.12354 16.3091L26.75 43.4741ZM17.8384 62.4053C17.5186 62.7182 17.3906 63.1782 17.502 63.6113C18.3057 66.7173 17.0444 69.9897 14.3652 71.7534C11.6855 73.5176 8.18164 73.3818 5.646 71.4165C3.11084 69.4511 2.10596 66.0908 3.14648 63.0566C4.1875 60.022 7.04199 57.9853 10.25 57.9888C11.4487 57.9878 12.6299 58.2763 13.6924 58.8315C14.1763 59.082 14.7661 58.9902 15.1514 58.6054L28.3872 45.3706C29.1274 46.0679 29.9824 46.6328 30.915 47.039L32.2349 48.3301L17.8384 62.4053ZM54.3555 58.8315C55.417 58.2763 56.5977 57.9878 57.7964 57.9888C61.0293 57.9692 63.9165 60.0117 64.9736 63.0674C66.0308 66.1235 65.0229 69.5127 62.4678 71.4951C59.9131 73.477 56.3799 73.6113 53.6821 71.8281C50.9849 70.0449 49.7231 66.7412 50.5459 63.6138C50.6582 63.1811 50.5303 62.7207 50.21 62.4077L35.0508 47.5879C36.7725 47.3237 38.3711 46.5386 39.6323 45.3379L52.8955 58.6006C53.2793 58.9878 53.8701 59.0815 54.3555 58.8315ZM63.6724 3.74949C64.7251 5.98826 66.2471 10.6792 63.0576 14.6689L38.1162 43.355C35.8516 45.6377 32.166 45.6523 29.8838 43.3882C27.6016 41.1235 27.5869 37.4375 29.8516 35.1557L63.6724 3.74949ZM4.39014 3.73875L32.1978 29.5654L28.1162 33.355C26.7393 34.6899 25.8574 36.4531 25.6162 38.355L5.04492 14.7075C1.79834 10.6504 3.32617 5.97508 4.39014 3.73875Z" fill="#FFA724"/>
        </svg>  